<mxfile host="65bd71144e">
    <diagram id="AL8CuCIluCazDs8NM_MM" name="Page-1">
        <mxGraphModel dx="926" dy="1831" grid="1" gridSize="10" guides="1" tooltips="1" connect="1" arrows="1" fold="1" page="1" pageScale="1" pageWidth="827" pageHeight="1169" math="0" shadow="0">
            <root>
                <mxCell id="0"/>
                <mxCell id="1" parent="0"/>
                <mxCell id="20" value="" style="rounded=0;whiteSpace=wrap;html=1;strokeWidth=3;" vertex="1" parent="1">
                    <mxGeometry x="130" y="10" width="1070" height="450" as="geometry"/>
                </mxCell>
                <mxCell id="2" value="Eden" style="rounded=0;whiteSpace=wrap;html=1;strokeWidth=3;fontFamily=배달의민족 주아;fontSize=30;verticalAlign=top;" vertex="1" parent="1">
                    <mxGeometry x="180" y="210" width="200" height="210" as="geometry"/>
                </mxCell>
                <mxCell id="3" value="Survivor 0" style="rounded=0;whiteSpace=wrap;html=1;strokeWidth=3;fontFamily=배달의민족 주아;fontSize=30;verticalAlign=top;" vertex="1" parent="1">
                    <mxGeometry x="380" y="210" width="200" height="210" as="geometry"/>
                </mxCell>
                <mxCell id="4" value="Survivor 1" style="rounded=0;whiteSpace=wrap;html=1;strokeWidth=3;fontFamily=배달의민족 주아;fontSize=30;verticalAlign=top;" vertex="1" parent="1">
                    <mxGeometry x="580" y="210" width="200" height="210" as="geometry"/>
                </mxCell>
                <mxCell id="5" value="Old Generation" style="rounded=0;whiteSpace=wrap;html=1;strokeWidth=3;fontFamily=배달의민족 주아;fontSize=30;verticalAlign=top;" vertex="1" parent="1">
                    <mxGeometry x="780" y="210" width="370" height="210" as="geometry"/>
                </mxCell>
                <mxCell id="6" value="" style="shape=cloud;whiteSpace=wrap;html=1;strokeWidth=3;fillColor=#d5e8d4;strokeColor=#82b366;" vertex="1" parent="1">
                    <mxGeometry x="235" y="280" width="90" height="80" as="geometry"/>
                </mxCell>
                <mxCell id="7" value="" style="shape=cloud;whiteSpace=wrap;html=1;strokeWidth=3;fillColor=#fff2cc;strokeColor=#d6b656;" vertex="1" parent="1">
                    <mxGeometry x="435" y="280" width="90" height="80" as="geometry"/>
                </mxCell>
                <mxCell id="8" value="" style="shape=cloud;whiteSpace=wrap;html=1;strokeWidth=3;fillColor=#ffe6cc;strokeColor=#d79b00;" vertex="1" parent="1">
                    <mxGeometry x="630" y="280" width="90" height="80" as="geometry"/>
                </mxCell>
                <mxCell id="9" value="" style="shape=cloud;whiteSpace=wrap;html=1;strokeWidth=3;fillColor=#f8cecc;strokeColor=#b85450;" vertex="1" parent="1">
                    <mxGeometry x="940" y="300" width="90" height="80" as="geometry"/>
                </mxCell>
                <mxCell id="10" value="" style="endArrow=classic;html=1;entryX=0.2;entryY=0.571;entryDx=0;entryDy=0;entryPerimeter=0;fillColor=#dae8fc;strokeColor=#C1C3FF;strokeWidth=3;" edge="1" parent="1" target="3">
                    <mxGeometry width="50" height="50" relative="1" as="geometry">
                        <mxPoint x="340" y="330" as="sourcePoint"/>
                        <mxPoint x="390" y="280" as="targetPoint"/>
                    </mxGeometry>
                </mxCell>
                <mxCell id="12" value="" style="curved=1;endArrow=classic;html=1;strokeWidth=3;fillColor=#dae8fc;strokeColor=#C1C3FF;" edge="1" parent="1">
                    <mxGeometry width="50" height="50" relative="1" as="geometry">
                        <mxPoint x="540" y="290" as="sourcePoint"/>
                        <mxPoint x="630" y="290" as="targetPoint"/>
                        <Array as="points">
                            <mxPoint x="560" y="270"/>
                        </Array>
                    </mxGeometry>
                </mxCell>
                <mxCell id="13" value="" style="curved=1;endArrow=none;html=1;strokeWidth=3;fillColor=#dae8fc;strokeColor=#C1C3FF;startArrow=classic;startFill=1;endFill=0;" edge="1" parent="1">
                    <mxGeometry width="50" height="50" relative="1" as="geometry">
                        <mxPoint x="535" y="350" as="sourcePoint"/>
                        <mxPoint x="625" y="350" as="targetPoint"/>
                        <Array as="points">
                            <mxPoint x="590" y="370"/>
                        </Array>
                    </mxGeometry>
                </mxCell>
                <mxCell id="14" value="" style="endArrow=classic;html=1;entryX=0.405;entryY=0.667;entryDx=0;entryDy=0;entryPerimeter=0;fillColor=#dae8fc;strokeColor=#C1C3FF;strokeWidth=3;" edge="1" parent="1" target="5">
                    <mxGeometry width="50" height="50" relative="1" as="geometry">
                        <mxPoint x="740" y="319.5" as="sourcePoint"/>
                        <mxPoint x="820" y="319.5" as="targetPoint"/>
                    </mxGeometry>
                </mxCell>
                <mxCell id="15" value="Promotion" style="edgeLabel;html=1;align=center;verticalAlign=middle;resizable=0;points=[];fontFamily=배달의민족 주아;fontSize=25;fontColor=#C1C3FF;" vertex="1" connectable="0" parent="14">
                    <mxGeometry x="0.0097" y="1" relative="1" as="geometry">
                        <mxPoint x="14" y="-24" as="offset"/>
                    </mxGeometry>
                </mxCell>
                <mxCell id="16" value="" style="curved=1;endArrow=none;html=1;strokeWidth=3;fillColor=#dae8fc;strokeColor=#C1C3FF;endFill=0;" edge="1" parent="1">
                    <mxGeometry width="50" height="50" relative="1" as="geometry">
                        <mxPoint x="190" y="200" as="sourcePoint"/>
                        <mxPoint x="780" y="200" as="targetPoint"/>
                        <Array as="points">
                            <mxPoint x="240" y="170"/>
                            <mxPoint x="510" y="110"/>
                        </Array>
                    </mxGeometry>
                </mxCell>
                <mxCell id="17" value="&lt;font style=&quot;color: rgb(193, 195, 255);&quot;&gt;Young Generation&lt;/font&gt;&lt;div&gt;&lt;font style=&quot;background-color: light-dark(#ffffff, var(--ge-dark-color, #121212)); color: rgb(229, 204, 255);&quot;&gt;Minor GC&lt;/font&gt;&lt;/div&gt;" style="edgeLabel;html=1;align=center;verticalAlign=middle;resizable=0;points=[];fontFamily=배달의민족 주아;fontSize=30;" vertex="1" connectable="0" parent="16">
                    <mxGeometry x="-0.0841" y="-9" relative="1" as="geometry">
                        <mxPoint y="-50" as="offset"/>
                    </mxGeometry>
                </mxCell>
                <mxCell id="18" value="" style="curved=1;endArrow=none;html=1;strokeWidth=3;fillColor=#dae8fc;strokeColor=#C1C3FF;endFill=0;" edge="1" parent="1">
                    <mxGeometry width="50" height="50" relative="1" as="geometry">
                        <mxPoint x="780" y="200" as="sourcePoint"/>
                        <mxPoint x="1150" y="200" as="targetPoint"/>
                        <Array as="points">
                            <mxPoint x="830" y="150"/>
                            <mxPoint x="1050" y="140"/>
                        </Array>
                    </mxGeometry>
                </mxCell>
                <mxCell id="19" value="&lt;font style=&quot;color: rgb(193, 195, 255);&quot;&gt;Old Generation&lt;/font&gt;&lt;div&gt;&lt;font style=&quot;background-color: light-dark(#ffffff, var(--ge-dark-color, #121212)); color: rgb(229, 204, 255);&quot;&gt;Major GC&lt;/font&gt;&lt;/div&gt;" style="edgeLabel;html=1;align=center;verticalAlign=middle;resizable=0;points=[];fontFamily=배달의민족 주아;fontSize=30;" vertex="1" connectable="0" parent="18">
                    <mxGeometry x="-0.0841" y="-9" relative="1" as="geometry">
                        <mxPoint x="13" y="-54" as="offset"/>
                    </mxGeometry>
                </mxCell>
                <mxCell id="21" value="힙 영역 구분" style="rounded=0;whiteSpace=wrap;html=1;strokeWidth=3;fontSize=40;fontFamily=배달의민족 주아;" vertex="1" parent="1">
                    <mxGeometry x="150" y="-20" width="210" height="60" as="geometry"/>
                </mxCell>
            </root>
        </mxGraphModel>
    </diagram>
</mxfile>